<svg width="152" height="53" viewBox="0 0 152 53" fill="none" xmlns="http://www.w3.org/2000/svg">
<path d="M5.69704 20.25L4.10987e-05 7.7486e-07H2.70004L7.74904 17.982L7.04704 17.955L12.15 7.7486e-07H14.715L19.818 18.063H19.116L24.138 7.7486e-07H26.73L21.06 20.25H18.09L12.987 2.457H13.797L8.69404 20.25H5.69704ZM34.4514 20.655C33.0474 20.655 31.8324 20.349 30.8064 19.737C29.7804 19.107 28.9794 18.234 28.4034 17.118C27.8454 15.984 27.5664 14.661 27.5664 13.149C27.5664 11.637 27.8454 10.314 28.4034 9.18C28.9794 8.028 29.7714 7.137 30.7794 6.507C31.8054 5.859 32.9844 5.535 34.3164 5.535C35.7384 5.535 36.9354 5.886 37.9074 6.588C38.8974 7.272 39.6354 8.235 40.1214 9.477C40.6074 10.719 40.8144 12.177 40.7424 13.851H29.4294V11.88H38.2854C38.2314 10.53 37.8354 9.468 37.0974 8.694C36.3594 7.92 35.4414 7.533 34.3434 7.533C33.6954 7.533 33.1284 7.65 32.6424 7.884C32.1744 8.118 31.7694 8.424 31.4274 8.802C31.1034 9.18 30.8334 9.594 30.6174 10.044C30.4194 10.476 30.2754 10.917 30.1854 11.367C30.0954 11.799 30.0504 12.195 30.0504 12.555V13.5C30.0504 14.526 30.2304 15.426 30.5904 16.2C30.9684 16.974 31.4904 17.577 32.1564 18.009C32.8224 18.423 33.5964 18.63 34.4784 18.63C35.1084 18.63 35.6844 18.504 36.2064 18.252C36.7284 18 37.1694 17.649 37.5294 17.199C37.9074 16.731 38.1594 16.209 38.2854 15.633H40.6614C40.4634 16.641 40.0764 17.523 39.5004 18.279C38.9244 19.035 38.2044 19.62 37.3404 20.034C36.4764 20.448 35.5134 20.655 34.4514 20.655ZM48.6473 20.655C46.9553 20.655 45.6053 20.205 44.5973 19.305C43.5893 18.405 43.0673 17.19 43.0313 15.66H45.2453C45.3353 16.596 45.6683 17.352 46.2443 17.928C46.8383 18.486 47.6483 18.765 48.6743 18.765C49.5203 18.765 50.2223 18.558 50.7803 18.144C51.3383 17.712 51.6173 17.127 51.6173 16.389C51.6173 15.777 51.4193 15.336 51.0233 15.066C50.6453 14.796 50.0063 14.535 49.1063 14.283C48.6203 14.139 48.1523 14.022 47.7023 13.932C47.2523 13.824 46.7573 13.68 46.2173 13.5C45.6593 13.32 45.1463 13.095 44.6783 12.825C44.2103 12.555 43.8323 12.195 43.5443 11.745C43.2743 11.277 43.1393 10.665 43.1393 9.909C43.1393 9.171 43.2833 8.532 43.5713 7.992C43.8593 7.434 44.2463 6.975 44.7323 6.615C45.2363 6.255 45.8033 5.985 46.4333 5.805C47.0813 5.625 47.7563 5.535 48.4583 5.535C49.5023 5.535 50.4113 5.724 51.1853 6.102C51.9773 6.462 52.5893 6.984 53.0213 7.668C53.4713 8.352 53.7053 9.153 53.7233 10.071H51.4013C51.3833 9.225 51.0773 8.568 50.4833 8.1C49.8893 7.614 49.1603 7.371 48.2963 7.371C47.5223 7.371 46.8563 7.56 46.2983 7.938C45.7583 8.316 45.4883 8.847 45.4883 9.531C45.4883 10.035 45.6503 10.431 45.9743 10.719C46.3163 11.007 46.8743 11.277 47.6483 11.529C48.0623 11.655 48.5663 11.79 49.1603 11.934C49.7543 12.06 50.2493 12.186 50.6453 12.312C51.5993 12.6 52.3193 12.96 52.8053 13.392C53.2913 13.806 53.6153 14.274 53.7773 14.796C53.9573 15.318 54.0293 15.885 53.9933 16.497C53.9573 17.523 53.6603 18.342 53.1023 18.954C52.5623 19.548 51.8873 19.98 51.0773 20.25C50.2853 20.52 49.4753 20.655 48.6473 20.655ZM61.9823 20.25C61.1363 20.25 60.4433 20.106 59.9033 19.818C59.3813 19.53 59.0033 19.08 58.7693 18.468C58.5353 17.838 58.4183 17.028 58.4183 16.038V1.35H60.9023V15.714C60.9023 16.326 60.9473 16.803 61.0373 17.145C61.1273 17.487 61.2893 17.73 61.5233 17.874C61.7753 18 62.1083 18.063 62.5223 18.063H64.3853V20.25H61.9823ZM55.9883 7.992V5.94H63.9803V7.992H55.9883ZM74.3458 20.25V7.7486e-07H81.3118C83.7238 7.7486e-07 85.5958 0.531001 86.9278 1.593C88.2598 2.637 88.9258 4.122 88.9258 6.048C88.9258 8.01 88.2598 9.522 86.9278 10.584C85.5958 11.646 83.7238 12.177 81.3118 12.177H77.0188V20.25H74.3458ZM77.0188 9.855H81.3118C82.8418 9.855 84.0388 9.531 84.9028 8.883C85.7668 8.217 86.1988 7.272 86.1988 6.048C86.1988 4.824 85.7668 3.897 84.9028 3.267C84.0388 2.619 82.8418 2.295 81.3118 2.295H77.0188V9.855ZM97.469 20.655C96.065 20.655 94.85 20.349 93.824 19.737C92.798 19.107 91.997 18.234 91.421 17.118C90.863 15.984 90.584 14.661 90.584 13.149C90.584 11.637 90.863 10.314 91.421 9.18C91.997 8.028 92.789 7.137 93.797 6.507C94.823 5.859 96.002 5.535 97.334 5.535C98.756 5.535 99.953 5.886 100.925 6.588C101.915 7.272 102.653 8.235 103.139 9.477C103.625 10.719 103.832 12.177 103.76 13.851H92.447V11.88H101.303C101.249 10.53 100.853 9.468 100.115 8.694C99.377 7.92 98.459 7.533 97.361 7.533C96.713 7.533 96.146 7.65 95.66 7.884C95.192 8.118 94.787 8.424 94.445 8.802C94.121 9.18 93.851 9.594 93.635 10.044C93.437 10.476 93.293 10.917 93.203 11.367C93.113 11.799 93.068 12.195 93.068 12.555V13.5C93.068 14.526 93.248 15.426 93.608 16.2C93.986 16.974 94.508 17.577 95.174 18.009C95.84 18.423 96.614 18.63 97.496 18.63C98.126 18.63 98.702 18.504 99.224 18.252C99.746 18 100.187 17.649 100.547 17.199C100.925 16.731 101.177 16.209 101.303 15.633H103.679C103.481 16.641 103.094 17.523 102.518 18.279C101.942 19.035 101.222 19.62 100.358 20.034C99.494 20.448 98.531 20.655 97.469 20.655ZM112.511 20.655C111.269 20.655 110.171 20.34 109.217 19.71C108.281 19.08 107.543 18.198 107.003 17.064C106.463 15.93 106.193 14.598 106.193 13.068C106.193 11.574 106.454 10.269 106.976 9.153C107.498 8.019 108.218 7.137 109.136 6.507C110.072 5.859 111.152 5.535 112.376 5.535C113.546 5.535 114.554 5.832 115.4 6.426C116.264 7.002 116.894 7.821 117.29 8.883L116.858 9.342L117.074 5.94H119.369V20.25H117.074L116.885 16.551L117.29 16.929C116.894 18.081 116.273 18.99 115.427 19.656C114.599 20.322 113.627 20.655 112.511 20.655ZM112.943 18.441C113.735 18.441 114.428 18.216 115.022 17.766C115.616 17.298 116.084 16.659 116.426 15.849C116.768 15.039 116.939 14.112 116.939 13.068C116.939 12.006 116.768 11.07 116.426 10.26C116.084 9.432 115.616 8.793 115.022 8.343C114.428 7.875 113.735 7.641 112.943 7.641C112.115 7.641 111.377 7.875 110.729 8.343C110.099 8.793 109.604 9.432 109.244 10.26C108.884 11.07 108.704 12.006 108.704 13.068C108.704 14.112 108.884 15.039 109.244 15.849C109.604 16.659 110.099 17.298 110.729 17.766C111.377 18.216 112.115 18.441 112.943 18.441ZM129.686 20.655C128.354 20.655 127.175 20.34 126.149 19.71C125.141 19.08 124.358 18.207 123.8 17.091C123.242 15.957 122.963 14.652 122.963 13.176C122.963 11.682 123.242 10.359 123.8 9.207C124.358 8.055 125.141 7.155 126.149 6.507C127.175 5.859 128.372 5.535 129.74 5.535C130.838 5.535 131.792 5.769 132.602 6.237C133.43 6.705 134.087 7.353 134.573 8.181C135.059 9.009 135.347 9.981 135.437 11.097H133.061C132.935 10.143 132.575 9.351 131.981 8.721C131.405 8.091 130.64 7.776 129.686 7.776C128.858 7.776 128.12 8.001 127.472 8.451C126.842 8.901 126.347 9.531 125.987 10.341C125.645 11.151 125.474 12.096 125.474 13.176C125.474 14.238 125.645 15.165 125.987 15.957C126.347 16.731 126.842 17.334 127.472 17.766C128.12 18.198 128.858 18.414 129.686 18.414C130.442 18.414 131.072 18.243 131.576 17.901C132.08 17.541 132.467 17.109 132.737 16.605C133.025 16.101 133.214 15.624 133.304 15.174H135.68C135.608 15.768 135.437 16.38 135.167 17.01C134.897 17.64 134.51 18.234 134.006 18.792C133.52 19.35 132.917 19.8 132.197 20.142C131.477 20.484 130.64 20.655 129.686 20.655ZM144.64 20.655C143.236 20.655 142.021 20.349 140.995 19.737C139.969 19.107 139.168 18.234 138.592 17.118C138.034 15.984 137.755 14.661 137.755 13.149C137.755 11.637 138.034 10.314 138.592 9.18C139.168 8.028 139.96 7.137 140.968 6.507C141.994 5.859 143.173 5.535 144.505 5.535C145.927 5.535 147.124 5.886 148.096 6.588C149.086 7.272 149.824 8.235 150.31 9.477C150.796 10.719 151.003 12.177 150.931 13.851H139.618V11.88H148.474C148.42 10.53 148.024 9.468 147.286 8.694C146.548 7.92 145.63 7.533 144.532 7.533C143.884 7.533 143.317 7.65 142.831 7.884C142.363 8.118 141.958 8.424 141.616 8.802C141.292 9.18 141.022 9.594 140.806 10.044C140.608 10.476 140.464 10.917 140.374 11.367C140.284 11.799 140.239 12.195 140.239 12.555V13.5C140.239 14.526 140.419 15.426 140.779 16.2C141.157 16.974 141.679 17.577 142.345 18.009C143.011 18.423 143.785 18.63 144.667 18.63C145.297 18.63 145.873 18.504 146.395 18.252C146.917 18 147.358 17.649 147.718 17.199C148.096 16.731 148.348 16.209 148.474 15.633H150.85C150.652 16.641 150.265 17.523 149.689 18.279C149.113 19.035 148.393 19.62 147.529 20.034C146.665 20.448 145.702 20.655 144.64 20.655ZM17.1537 52.25L8.04712 27.14H13.5044L20.9369 48.1654H19.2629L26.729 27.14H32.0523L22.9122 52.25H17.1537ZM40.7364 52.7857C38.9285 52.7857 37.3661 52.4062 36.0492 51.6474C34.7547 50.8662 33.7391 49.7836 33.0025 48.3998C32.266 46.9936 31.8977 45.3196 31.8977 43.3778C31.8977 41.4806 32.2548 39.8289 32.9691 38.4228C33.7056 37.0166 34.7323 35.9229 36.0492 35.1417C37.3661 34.3605 38.9062 33.9699 40.6695 33.9699C42.522 33.9699 44.0844 34.4052 45.3567 35.2756C46.6289 36.1461 47.5775 37.396 48.2025 39.0254C48.8497 40.6324 49.1287 42.5743 49.0395 44.8509H35.614V41.5364H44.2853C44.196 40.1749 43.7943 39.204 43.08 38.6236C42.3658 38.021 41.5734 37.7197 40.7029 37.7197C40.1896 37.7197 39.732 37.7978 39.3303 37.954C38.9285 38.1103 38.5602 38.3446 38.2254 38.6571C37.8906 38.9473 37.6116 39.2932 37.3884 39.695C37.1652 40.0744 36.9978 40.5097 36.8862 41.0007C36.7746 41.4918 36.7188 42.0051 36.7188 42.5408V44.2818C36.7188 45.2415 36.8974 46.0897 37.2545 46.8262C37.6116 47.5405 38.1027 48.0985 38.7276 48.5002C39.3526 48.902 40.0668 49.1029 40.8703 49.1029C41.4507 49.1029 41.964 49.0024 42.4104 48.8016C42.8791 48.5784 43.2697 48.277 43.5822 47.8976C43.917 47.5182 44.1625 47.0829 44.3188 46.5919H48.939C48.6265 47.8195 48.1132 48.902 47.3989 49.8394C46.6847 50.7769 45.7584 51.5023 44.6201 52.0156C43.5041 52.529 42.2095 52.7857 40.7364 52.7857ZM63.4369 52.25V41.6703C63.4369 40.5766 63.1467 39.7173 62.5664 39.0924C62.0084 38.4451 61.2384 38.1214 60.2563 38.1214C59.5867 38.1214 59.0064 38.3 58.5153 38.6571C58.0466 38.9919 57.6783 39.4718 57.4105 40.0968C57.165 40.6994 57.0422 41.4025 57.0422 42.206L55.9039 39.0589C56.3503 37.4965 57.0757 36.2577 58.0801 35.3426C59.1068 34.4275 60.3456 33.9699 61.7964 33.9699C63.1133 33.9699 64.2516 34.2601 65.2113 34.8404C66.1934 35.3984 66.9523 36.1796 67.488 37.184C68.0237 38.1884 68.2915 39.349 68.2915 40.6659V52.25H63.4369ZM52.422 52.25V34.5056H56.7074L57.2096 38.8245V52.25H52.422ZM78.7025 52.25C77.7204 52.25 76.8722 52.0491 76.158 51.6474C75.4438 51.2456 74.8858 50.6764 74.484 49.9399C74.1046 49.2033 73.9148 48.3328 73.9148 47.3284V28.9479H78.736V46.5249C78.736 46.8374 78.7918 47.1164 78.9034 47.3619C79.015 47.5851 79.1712 47.7637 79.3721 47.8976C79.5953 48.0092 79.8408 48.065 80.1086 48.065H82.8875V52.25H78.7025ZM70.9686 38.3893V34.5056H82.3853V38.3893H70.9686ZM93.3416 52.7857C91.8015 52.7857 90.4288 52.4509 89.2236 51.7813C88.0406 51.1117 87.1032 50.1854 86.4112 49.0024C85.7416 47.8195 85.4068 46.458 85.4068 44.9179V34.5056H90.228V45.0853C90.228 46.1343 90.5181 46.9825 91.0984 47.6298C91.7011 48.277 92.4488 48.6007 93.3416 48.6007C94.2344 48.6007 94.971 48.277 95.5513 47.6298C96.1539 46.9825 96.4552 46.1343 96.4552 45.0853V34.5056H101.276V44.9179C101.276 46.4803 100.93 47.853 100.238 49.0359C99.5689 50.1966 98.6314 51.1117 97.4262 51.7813C96.2432 52.4509 94.8817 52.7857 93.3416 52.7857ZM105.421 52.317V34.4721H109.807L110.108 37.7532C110.443 36.6372 111.023 35.7332 111.849 35.0413C112.675 34.327 113.691 33.9699 114.896 33.9699C115.074 33.9699 115.242 33.9811 115.398 34.0034C115.577 34.0034 115.744 34.0257 115.9 34.0704V38.6571C115.722 38.6125 115.532 38.5902 115.331 38.5902C115.13 38.5678 114.941 38.5567 114.762 38.5567C113.869 38.5567 113.077 38.7241 112.385 39.0589C111.715 39.3714 111.191 39.8512 110.811 40.4985C110.454 41.1235 110.276 41.9047 110.276 42.8421V52.317H105.421ZM126.038 52.7857C124.231 52.7857 122.668 52.4062 121.351 51.6474C120.057 50.8662 119.041 49.7836 118.305 48.3998C117.568 46.9936 117.2 45.3196 117.2 43.3778C117.2 41.4806 117.557 39.8289 118.271 38.4228C119.008 37.0166 120.034 35.9229 121.351 35.1417C122.668 34.3605 124.208 33.9699 125.972 33.9699C127.824 33.9699 129.386 34.4052 130.659 35.2756C131.931 36.1461 132.88 37.396 133.505 39.0254C134.152 40.6324 134.431 42.5743 134.342 44.8509H120.916V41.5364H129.587C129.498 40.1749 129.096 39.204 128.382 38.6236C127.668 38.021 126.875 37.7197 126.005 37.7197C125.492 37.7197 125.034 37.7978 124.632 37.954C124.231 38.1103 123.862 38.3446 123.527 38.6571C123.193 38.9473 122.914 39.2932 122.69 39.695C122.467 40.0744 122.3 40.5097 122.188 41.0007C122.077 41.4918 122.021 42.0051 122.021 42.5408V44.2818C122.021 45.2415 122.199 46.0897 122.557 46.8262C122.914 47.5405 123.405 48.0985 124.03 48.5002C124.655 48.902 125.369 49.1029 126.172 49.1029C126.753 49.1029 127.266 49.0024 127.712 48.8016C128.181 48.5784 128.572 48.277 128.884 47.8976C129.219 47.5182 129.465 47.0829 129.621 46.5919H134.241C133.929 47.8195 133.415 48.902 132.701 49.8394C131.987 50.7769 131.06 51.5023 129.922 52.0156C128.806 52.529 127.512 52.7857 126.038 52.7857ZM144.044 52.7857C141.767 52.7857 139.926 52.2388 138.52 51.1452C137.136 50.0292 136.444 48.4779 136.444 46.4914H140.729C140.886 47.4289 141.243 48.1208 141.801 48.5672C142.381 49.0136 143.118 49.2368 144.01 49.2368C144.747 49.2368 145.361 49.0806 145.852 48.7681C146.365 48.4333 146.622 47.9757 146.622 47.3954C146.622 46.949 146.443 46.6142 146.086 46.391C145.751 46.1678 145.059 45.9334 144.01 45.6879C143.296 45.5094 142.682 45.3531 142.169 45.2192C141.656 45.0853 141.064 44.9067 140.395 44.6835C139.703 44.438 139.055 44.1367 138.453 43.7796C137.872 43.4224 137.404 42.9426 137.047 42.3399C136.712 41.715 136.544 40.9226 136.544 39.9628C136.544 38.8468 136.756 37.9206 137.181 37.184C137.627 36.4251 138.196 35.8113 138.888 35.3426C139.602 34.8516 140.383 34.5056 141.232 34.3047C142.08 34.0815 142.928 33.9699 143.776 33.9699C145.138 33.9699 146.354 34.2154 147.425 34.7065C148.497 35.1752 149.334 35.856 149.936 36.7488C150.561 37.6192 150.874 38.6236 150.874 39.762H146.321C146.343 39.07 146.053 38.512 145.45 38.088C144.87 37.6416 144.211 37.4184 143.475 37.4184C142.917 37.4184 142.37 37.5634 141.834 37.8536C141.299 38.1214 141.031 38.5567 141.031 39.1593C141.031 39.5834 141.209 39.9294 141.566 40.1972C141.924 40.465 142.582 40.7329 143.542 41.0007C144.144 41.157 144.814 41.3244 145.551 41.5029C146.287 41.6815 146.901 41.8489 147.392 42.0051C148.24 42.2506 148.943 42.5966 149.501 43.043C150.081 43.4671 150.506 44.0028 150.773 44.65C151.064 45.275 151.209 46.0339 151.209 46.9267C151.186 48.1989 150.863 49.2814 150.238 50.1742C149.635 51.0447 148.798 51.7032 147.727 52.1496C146.678 52.5736 145.45 52.7857 144.044 52.7857Z" fill="white"/>
</svg>
