<svg width="154" height="59" viewBox="0 0 154 59" fill="none" xmlns="http://www.w3.org/2000/svg">
<path d="M6.48 23L0.783 2.75H3.483L8.532 20.732L7.83 20.705L12.933 2.75H15.498L20.601 20.813H19.899L24.921 2.75H27.513L21.843 23H18.873L13.77 5.207H14.58L9.477 23H6.48ZM35.2344 23.405C33.8304 23.405 32.6154 23.099 31.5894 22.487C30.5634 21.857 29.7624 20.984 29.1864 19.868C28.6284 18.734 28.3494 17.411 28.3494 15.899C28.3494 14.387 28.6284 13.064 29.1864 11.93C29.7624 10.778 30.5544 9.887 31.5624 9.257C32.5884 8.609 33.7674 8.285 35.0994 8.285C36.5214 8.285 37.7184 8.636 38.6904 9.338C39.6804 10.022 40.4184 10.985 40.9044 12.227C41.3904 13.469 41.5974 14.927 41.5254 16.601H30.2124V14.63H39.0684C39.0144 13.28 38.6184 12.218 37.8804 11.444C37.1424 10.67 36.2244 10.283 35.1264 10.283C34.4784 10.283 33.9114 10.4 33.4254 10.634C32.9574 10.868 32.5524 11.174 32.2104 11.552C31.8864 11.93 31.6164 12.344 31.4004 12.794C31.2024 13.226 31.0584 13.667 30.9684 14.117C30.8784 14.549 30.8334 14.945 30.8334 15.305V16.25C30.8334 17.276 31.0134 18.176 31.3734 18.95C31.7514 19.724 32.2734 20.327 32.9394 20.759C33.6054 21.173 34.3794 21.38 35.2614 21.38C35.8914 21.38 36.4674 21.254 36.9894 21.002C37.5114 20.75 37.9524 20.399 38.3124 19.949C38.6904 19.481 38.9424 18.959 39.0684 18.383H41.4444C41.2464 19.391 40.8594 20.273 40.2834 21.029C39.7074 21.785 38.9874 22.37 38.1234 22.784C37.2594 23.198 36.2964 23.405 35.2344 23.405ZM49.4303 23.405C47.7383 23.405 46.3883 22.955 45.3803 22.055C44.3723 21.155 43.8503 19.94 43.8143 18.41H46.0283C46.1183 19.346 46.4513 20.102 47.0273 20.678C47.6213 21.236 48.4313 21.515 49.4573 21.515C50.3033 21.515 51.0053 21.308 51.5633 20.894C52.1213 20.462 52.4003 19.877 52.4003 19.139C52.4003 18.527 52.2023 18.086 51.8063 17.816C51.4283 17.546 50.7893 17.285 49.8893 17.033C49.4033 16.889 48.9353 16.772 48.4853 16.682C48.0353 16.574 47.5403 16.43 47.0003 16.25C46.4423 16.07 45.9293 15.845 45.4613 15.575C44.9933 15.305 44.6153 14.945 44.3273 14.495C44.0573 14.027 43.9223 13.415 43.9223 12.659C43.9223 11.921 44.0663 11.282 44.3543 10.742C44.6423 10.184 45.0293 9.725 45.5153 9.365C46.0193 9.005 46.5863 8.735 47.2163 8.555C47.8643 8.375 48.5393 8.285 49.2413 8.285C50.2853 8.285 51.1943 8.474 51.9683 8.852C52.7603 9.212 53.3723 9.734 53.8043 10.418C54.2543 11.102 54.4883 11.903 54.5063 12.821H52.1843C52.1663 11.975 51.8603 11.318 51.2663 10.85C50.6723 10.364 49.9433 10.121 49.0793 10.121C48.3053 10.121 47.6393 10.31 47.0813 10.688C46.5413 11.066 46.2713 11.597 46.2713 12.281C46.2713 12.785 46.4333 13.181 46.7573 13.469C47.0993 13.757 47.6573 14.027 48.4313 14.279C48.8453 14.405 49.3493 14.54 49.9433 14.684C50.5373 14.81 51.0323 14.936 51.4283 15.062C52.3823 15.35 53.1023 15.71 53.5883 16.142C54.0743 16.556 54.3983 17.024 54.5603 17.546C54.7403 18.068 54.8123 18.635 54.7763 19.247C54.7403 20.273 54.4433 21.092 53.8853 21.704C53.3453 22.298 52.6703 22.73 51.8603 23C51.0683 23.27 50.2583 23.405 49.4303 23.405ZM62.7653 23C61.9193 23 61.2263 22.856 60.6863 22.568C60.1643 22.28 59.7863 21.83 59.5523 21.218C59.3183 20.588 59.2013 19.778 59.2013 18.788V4.1H61.6853V18.464C61.6853 19.076 61.7303 19.553 61.8203 19.895C61.9103 20.237 62.0723 20.48 62.3063 20.624C62.5583 20.75 62.8913 20.813 63.3053 20.813H65.1683V23H62.7653ZM56.7713 10.742V8.69H64.7633V10.742H56.7713ZM75.1288 23V2.75H82.0948C84.5068 2.75 86.3788 3.281 87.7108 4.343C89.0428 5.387 89.7088 6.872 89.7088 8.798C89.7088 10.76 89.0428 12.272 87.7108 13.334C86.3788 14.396 84.5068 14.927 82.0948 14.927H77.8018V23H75.1288ZM77.8018 12.605H82.0948C83.6248 12.605 84.8218 12.281 85.6858 11.633C86.5498 10.967 86.9818 10.022 86.9818 8.798C86.9818 7.574 86.5498 6.647 85.6858 6.017C84.8218 5.369 83.6248 5.045 82.0948 5.045H77.8018V12.605ZM98.252 23.405C96.848 23.405 95.633 23.099 94.607 22.487C93.581 21.857 92.78 20.984 92.204 19.868C91.646 18.734 91.367 17.411 91.367 15.899C91.367 14.387 91.646 13.064 92.204 11.93C92.78 10.778 93.572 9.887 94.58 9.257C95.606 8.609 96.785 8.285 98.117 8.285C99.539 8.285 100.736 8.636 101.708 9.338C102.698 10.022 103.436 10.985 103.922 12.227C104.408 13.469 104.615 14.927 104.543 16.601H93.23V14.63H102.086C102.032 13.28 101.636 12.218 100.898 11.444C100.16 10.67 99.242 10.283 98.144 10.283C97.496 10.283 96.929 10.4 96.443 10.634C95.975 10.868 95.57 11.174 95.228 11.552C94.904 11.93 94.634 12.344 94.418 12.794C94.22 13.226 94.076 13.667 93.986 14.117C93.896 14.549 93.851 14.945 93.851 15.305V16.25C93.851 17.276 94.031 18.176 94.391 18.95C94.769 19.724 95.291 20.327 95.957 20.759C96.623 21.173 97.397 21.38 98.279 21.38C98.909 21.38 99.485 21.254 100.007 21.002C100.529 20.75 100.97 20.399 101.33 19.949C101.708 19.481 101.96 18.959 102.086 18.383H104.462C104.264 19.391 103.877 20.273 103.301 21.029C102.725 21.785 102.005 22.37 101.141 22.784C100.277 23.198 99.314 23.405 98.252 23.405ZM113.294 23.405C112.052 23.405 110.954 23.09 110 22.46C109.064 21.83 108.326 20.948 107.786 19.814C107.246 18.68 106.976 17.348 106.976 15.818C106.976 14.324 107.237 13.019 107.759 11.903C108.281 10.769 109.001 9.887 109.919 9.257C110.855 8.609 111.935 8.285 113.159 8.285C114.329 8.285 115.337 8.582 116.183 9.176C117.047 9.752 117.677 10.571 118.073 11.633L117.641 12.092L117.857 8.69H120.152V23H117.857L117.668 19.301L118.073 19.679C117.677 20.831 117.056 21.74 116.21 22.406C115.382 23.072 114.41 23.405 113.294 23.405ZM113.726 21.191C114.518 21.191 115.211 20.966 115.805 20.516C116.399 20.048 116.867 19.409 117.209 18.599C117.551 17.789 117.722 16.862 117.722 15.818C117.722 14.756 117.551 13.82 117.209 13.01C116.867 12.182 116.399 11.543 115.805 11.093C115.211 10.625 114.518 10.391 113.726 10.391C112.898 10.391 112.16 10.625 111.512 11.093C110.882 11.543 110.387 12.182 110.027 13.01C109.667 13.82 109.487 14.756 109.487 15.818C109.487 16.862 109.667 17.789 110.027 18.599C110.387 19.409 110.882 20.048 111.512 20.516C112.16 20.966 112.898 21.191 113.726 21.191ZM130.469 23.405C129.137 23.405 127.958 23.09 126.932 22.46C125.924 21.83 125.141 20.957 124.583 19.841C124.025 18.707 123.746 17.402 123.746 15.926C123.746 14.432 124.025 13.109 124.583 11.957C125.141 10.805 125.924 9.905 126.932 9.257C127.958 8.609 129.155 8.285 130.523 8.285C131.621 8.285 132.575 8.519 133.385 8.987C134.213 9.455 134.87 10.103 135.356 10.931C135.842 11.759 136.13 12.731 136.22 13.847H133.844C133.718 12.893 133.358 12.101 132.764 11.471C132.188 10.841 131.423 10.526 130.469 10.526C129.641 10.526 128.903 10.751 128.255 11.201C127.625 11.651 127.13 12.281 126.77 13.091C126.428 13.901 126.257 14.846 126.257 15.926C126.257 16.988 126.428 17.915 126.77 18.707C127.13 19.481 127.625 20.084 128.255 20.516C128.903 20.948 129.641 21.164 130.469 21.164C131.225 21.164 131.855 20.993 132.359 20.651C132.863 20.291 133.25 19.859 133.52 19.355C133.808 18.851 133.997 18.374 134.087 17.924H136.463C136.391 18.518 136.22 19.13 135.95 19.76C135.68 20.39 135.293 20.984 134.789 21.542C134.303 22.1 133.7 22.55 132.98 22.892C132.26 23.234 131.423 23.405 130.469 23.405ZM145.423 23.405C144.019 23.405 142.804 23.099 141.778 22.487C140.752 21.857 139.951 20.984 139.375 19.868C138.817 18.734 138.538 17.411 138.538 15.899C138.538 14.387 138.817 13.064 139.375 11.93C139.951 10.778 140.743 9.887 141.751 9.257C142.777 8.609 143.956 8.285 145.288 8.285C146.71 8.285 147.907 8.636 148.879 9.338C149.869 10.022 150.607 10.985 151.093 12.227C151.579 13.469 151.786 14.927 151.714 16.601H140.401V14.63H149.257C149.203 13.28 148.807 12.218 148.069 11.444C147.331 10.67 146.413 10.283 145.315 10.283C144.667 10.283 144.1 10.4 143.614 10.634C143.146 10.868 142.741 11.174 142.399 11.552C142.075 11.93 141.805 12.344 141.589 12.794C141.391 13.226 141.247 13.667 141.157 14.117C141.067 14.549 141.022 14.945 141.022 15.305V16.25C141.022 17.276 141.202 18.176 141.562 18.95C141.94 19.724 142.462 20.327 143.128 20.759C143.794 21.173 144.568 21.38 145.45 21.38C146.08 21.38 146.656 21.254 147.178 21.002C147.7 20.75 148.141 20.399 148.501 19.949C148.879 19.481 149.131 18.959 149.257 18.383H151.633C151.435 19.391 151.048 20.273 150.472 21.029C149.896 21.785 149.176 22.37 148.312 22.784C147.448 23.198 146.485 23.405 145.423 23.405ZM17.9366 55L8.83008 29.89H14.2873L21.7199 50.9154H20.0459L27.5119 29.89H32.8352L23.6952 55H17.9366ZM41.5194 55.5357C39.7115 55.5357 38.1491 55.1562 36.8322 54.3974C35.5376 53.6162 34.5221 52.5336 33.7855 51.1498C33.0489 49.7436 32.6807 48.0696 32.6807 46.1278C32.6807 44.2306 33.0378 42.5789 33.752 41.1728C34.4886 39.7666 35.5153 38.6729 36.8322 37.8917C38.1491 37.1105 39.6891 36.7199 41.4524 36.7199C43.305 36.7199 44.8674 37.1552 46.1396 38.0256C47.4119 38.8961 48.3605 40.146 48.9854 41.7754C49.6327 43.3824 49.9117 45.3243 49.8224 47.6009H36.3969V44.2864H45.0683C44.979 42.9249 44.5772 41.954 43.863 41.3736C43.1487 40.771 42.3564 40.4697 41.4859 40.4697C40.9725 40.4697 40.515 40.5478 40.1132 40.704C39.7115 40.8603 39.3432 41.0946 39.0084 41.4071C38.6736 41.6973 38.3946 42.0432 38.1714 42.445C37.9482 42.8244 37.7808 43.2597 37.6692 43.7507C37.5576 44.2418 37.5018 44.7551 37.5018 45.2908V47.0318C37.5018 47.9915 37.6803 48.8397 38.0375 49.5762C38.3946 50.2905 38.8856 50.8485 39.5106 51.2502C40.1355 51.652 40.8498 51.8529 41.6533 51.8529C42.2336 51.8529 42.747 51.7524 43.1934 51.5516C43.6621 51.3284 44.0527 51.027 44.3652 50.6476C44.7 50.2682 44.9455 49.8329 45.1017 49.3419H49.722C49.4095 50.5695 48.8961 51.652 48.1819 52.5894C47.4677 53.5269 46.5414 54.2523 45.4031 54.7656C44.2871 55.279 42.9925 55.5357 41.5194 55.5357ZM64.2199 55V44.4203C64.2199 43.3266 63.9297 42.4673 63.3494 41.8424C62.7914 41.1951 62.0213 40.8714 61.0393 40.8714C60.3697 40.8714 59.7893 41.05 59.2983 41.4071C58.8296 41.7419 58.4613 42.2218 58.1935 42.8468C57.9479 43.4494 57.8252 44.1525 57.8252 44.956L56.6869 41.8089C57.1333 40.2465 57.8587 39.0077 58.8631 38.0926C59.8898 37.1775 61.1285 36.7199 62.5793 36.7199C63.8962 36.7199 65.0345 37.0101 65.9943 37.5904C66.9764 38.1484 67.7353 38.9296 68.2709 39.934C68.8066 40.9384 69.0745 42.099 69.0745 43.4159V55H64.2199ZM53.2049 55V37.2556H57.4904L57.9926 41.5745V55H53.2049ZM79.4854 55C78.5034 55 77.6552 54.7991 76.941 54.3974C76.2267 53.9956 75.6687 53.4264 75.267 52.6899C74.8875 51.9533 74.6978 51.0828 74.6978 50.0784V31.6979H79.5189V49.2749C79.5189 49.5874 79.5747 49.8664 79.6863 50.1119C79.7979 50.3351 79.9542 50.5137 80.155 50.6476C80.3782 50.7592 80.6238 50.815 80.8916 50.815H83.6704V55H79.4854ZM71.7516 41.1393V37.2556H83.1682V41.1393H71.7516ZM94.1246 55.5357C92.5845 55.5357 91.2118 55.2009 90.0065 54.5313C88.8236 53.8617 87.8861 52.9354 87.1942 51.7524C86.5246 50.5695 86.1898 49.208 86.1898 47.6679V37.2556H91.0109V47.8353C91.0109 48.8843 91.3011 49.7325 91.8814 50.3798C92.484 51.027 93.2318 51.3507 94.1246 51.3507C95.0174 51.3507 95.7539 51.027 96.3342 50.3798C96.9369 49.7325 97.2382 48.8843 97.2382 47.8353V37.2556H102.059V47.6679C102.059 49.2303 101.713 50.603 101.021 51.7859C100.352 52.9466 99.4144 53.8617 98.2091 54.5313C97.0262 55.2009 95.6646 55.5357 94.1246 55.5357ZM106.204 55.067V37.2221H110.59L110.891 40.5032C111.226 39.3872 111.806 38.4832 112.632 37.7913C113.458 37.077 114.474 36.7199 115.679 36.7199C115.857 36.7199 116.025 36.7311 116.181 36.7534C116.36 36.7534 116.527 36.7757 116.683 36.8204V41.4071C116.505 41.3625 116.315 41.3402 116.114 41.3402C115.913 41.3178 115.724 41.3067 115.545 41.3067C114.652 41.3067 113.86 41.4741 113.168 41.8089C112.498 42.1214 111.974 42.6012 111.594 43.2485C111.237 43.8735 111.059 44.6547 111.059 45.5921V55.067H106.204ZM126.821 55.5357C125.014 55.5357 123.451 55.1562 122.134 54.3974C120.84 53.6162 119.824 52.5336 119.088 51.1498C118.351 49.7436 117.983 48.0696 117.983 46.1278C117.983 44.2306 118.34 42.5789 119.054 41.1728C119.791 39.7666 120.817 38.6729 122.134 37.8917C123.451 37.1105 124.991 36.7199 126.754 36.7199C128.607 36.7199 130.169 37.1552 131.442 38.0256C132.714 38.8961 133.663 40.146 134.287 41.7754C134.935 43.3824 135.214 45.3243 135.124 47.6009H121.699V44.2864H130.37C130.281 42.9249 129.879 41.954 129.165 41.3736C128.451 40.771 127.658 40.4697 126.788 40.4697C126.275 40.4697 125.817 40.5478 125.415 40.704C125.014 40.8603 124.645 41.0946 124.31 41.4071C123.976 41.6973 123.697 42.0432 123.473 42.445C123.25 42.8244 123.083 43.2597 122.971 43.7507C122.86 44.2418 122.804 44.7551 122.804 45.2908V47.0318C122.804 47.9915 122.982 48.8397 123.34 49.5762C123.697 50.2905 124.188 50.8485 124.813 51.2502C125.438 51.652 126.152 51.8529 126.955 51.8529C127.536 51.8529 128.049 51.7524 128.495 51.5516C128.964 51.3284 129.355 51.027 129.667 50.6476C130.002 50.2682 130.248 49.8329 130.404 49.3419H135.024C134.712 50.5695 134.198 51.652 133.484 52.5894C132.77 53.5269 131.843 54.2523 130.705 54.7656C129.589 55.279 128.295 55.5357 126.821 55.5357ZM144.827 55.5357C142.55 55.5357 140.709 54.9888 139.303 53.8952C137.919 52.7792 137.227 51.2279 137.227 49.2414H141.512C141.669 50.1789 142.026 50.8708 142.584 51.3172C143.164 51.7636 143.901 51.9868 144.793 51.9868C145.53 51.9868 146.144 51.8306 146.635 51.5181C147.148 51.1833 147.405 50.7257 147.405 50.1454C147.405 49.699 147.226 49.3642 146.869 49.141C146.534 48.9178 145.842 48.6834 144.793 48.4379C144.079 48.2594 143.465 48.1031 142.952 47.9692C142.439 47.8353 141.847 47.6567 141.178 47.4335C140.486 47.188 139.838 46.8867 139.236 46.5296C138.655 46.1724 138.187 45.6926 137.83 45.0899C137.495 44.465 137.327 43.6726 137.327 42.7128C137.327 41.5968 137.539 40.6706 137.963 39.934C138.41 39.1751 138.979 38.5613 139.671 38.0926C140.385 37.6016 141.166 37.2556 142.015 37.0547C142.863 36.8315 143.711 36.7199 144.559 36.7199C145.921 36.7199 147.137 36.9654 148.208 37.4565C149.28 37.9252 150.117 38.606 150.719 39.4988C151.344 40.3692 151.657 41.3736 151.657 42.512H147.104C147.126 41.82 146.836 41.262 146.233 40.838C145.653 40.3916 144.994 40.1684 144.258 40.1684C143.7 40.1684 143.153 40.3134 142.617 40.6036C142.082 40.8714 141.814 41.3067 141.814 41.9093C141.814 42.3334 141.992 42.6794 142.349 42.9472C142.706 43.215 143.365 43.4829 144.325 43.7507C144.927 43.907 145.597 44.0744 146.333 44.2529C147.07 44.4315 147.684 44.5989 148.175 44.7551C149.023 45.0006 149.726 45.3466 150.284 45.793C150.864 46.2171 151.289 46.7528 151.556 47.4C151.847 48.025 151.992 48.7839 151.992 49.6767C151.969 50.9489 151.646 52.0314 151.021 52.9242C150.418 53.7947 149.581 54.4532 148.51 54.8996C147.461 55.3236 146.233 55.5357 144.827 55.5357Z" fill="white"/>
<path d="M9.92928 55L0.780029 30V55H9.92928Z" fill="white"/>
</svg>
